<svg width="96" height="96" viewBox="0 0 96 96" fill="none" xmlns="http://www.w3.org/2000/svg">
  <rect x="18" y="14" width="42" height="68" rx="10" fill="#E0F2FE"/>
  <rect x="24" y="22" width="30" height="46" rx="6" fill="white" stroke="#2563EB" stroke-width="3"/>
  <circle cx="39" cy="74" r="3" fill="#2563EB"/>
  <path d="M66 32C66 27.5817 69.5817 24 74 24H76C80.4183 24 84 27.5817 84 32V52C84 56.4183 80.4183 60 76 60H74C69.5817 60 66 56.4183 66 52V32Z" fill="#DBEAFE"/>
  <path d="M74 60V67" stroke="#2563EB" stroke-width="3" stroke-linecap="round"/>
  <path d="M68 68C69.866 70.4853 71.9357 72 74 72C76.0643 72 78.134 70.4853 80 68" stroke="#2563EB" stroke-width="3" stroke-linecap="round"/>
</svg>
