<svg aria-label="Boilabin logo for light backgrounds" role="img" viewBox="0 0 462.11 94.25" xmlns="http://www.w3.org/2000/svg"><title>Boilabin logo for light backgrounds</title><g transform="translate(-30.55 -21.45) scale(.13)" fill="#0057FF"><path d="m250 165h360c155 0 230 85 230 177 0 93-75 158-195 155-105-3-145-72-230-72-65 0-110 40-155 85-12 12-25 7-25-10v-310c0-14 4-25 15-25z"/><path d="m255 548c11-4 21 4 37 21 56 59 96 114 163 114 79 0 135-69 213-118 70-44 159-19 197 80 45 116-17 213-161 240-13 3-26 5-41 5h-406c-12 0-22-9-22-22v-284c0-17 8-31 20-36z"/></g><path transform="translate(96.8 -13.551) scale(.953)" d="m7.6 100h18.3c9.9 0 15.5-1.1 20.2-3.9 5.2-3.2 8.3-9.7 8.3-17.3 0-9.1-3.8-14.6-12.4-18.2 5.7-3.2 8.2-8 8.2-15.3 0-6.4-2.4-11.8-6.6-14.9-4.2-3-9.7-4.3-18.7-4.3h-17.3zm7.4-6.7v-28.7h8.8c8.7 0 13.1 0.6 16.2 2.1 4.4 2.2 6.9 6.6 6.9 12.5 0 5.1-2.3 9.6-5.8 11.4-3.5 1.9-8.5 2.7-16 2.7zm0-35.4v-25.1h8.9c7.6 0 11.7 0.7 14.5 2.6 2.6 1.7 4.3 5.6 4.3 10 0 5.1-2 8.9-5.7 10.6-3.1 1.4-6.3 1.9-13 1.9zm76.3-13.9c-16.3 0-28.7 12.3-28.7 28.3 0 16.9 12.3 29 29.3 29 16 0 27.8-12.1 27.8-28.5 0-16.7-11.9-28.8-28.4-28.8zm0 6.8c12.1 0 20.9 9.3 20.9 22.1 0 12.6-8.6 21.6-20.5 21.6-12.6 0-21.6-9.1-21.6-22 0-12.4 9.1-21.7 21.2-21.7zm39.9 49.2h7.4v-54.7h-7.4zm0-61.3h7.4v-12.6h-7.4zm21 61.3h7.4v-73.9h-7.4zm76.7-54.7h-7.4v9.7c-5.5-7.6-12.1-11-21.6-11-16.4 0-28.8 12.4-28.8 28.8s12.5 28.5 29.4 28.5c9.3 0 15.1-3 21-10.9v9.6h7.4zm-28.8 5.5c12.1 0 21.4 9.4 21.4 21.6 0 12.5-9.2 22.1-21 22.1-12.4 0-21.9-9.7-21.9-22.2 0-11.9 9.6-21.5 21.5-21.5zm42.4 49.2h7.4v-9.4c4.6 6.8 12.4 10.7 21.4 10.7 16.5 0 28.9-12.3 28.9-28.7 0-16.1-12.6-28.6-28.8-28.6-9.2 0-16.8 3.8-21.5 10.7v-28.6h-7.4zm28.7-49.2c12.3 0 21.5 9.3 21.5 21.6 0 12.6-9.2 22.1-21.6 22.1-6.1 0-11.1-2.1-15.4-6.5s-6.3-9.4-6.3-15.6c0-12.2 9.5-21.6 21.8-21.6zm40.5 49.2h7.4v-54.7h-7.4zm0-61.3h7.4v-12.6h-7.4zm21 61.3h7.4v-30.1c0-6.1 0.8-9.3 2.9-12.4 2.9-4.2 8-6.7 13.8-6.7 5.4 0 10.3 2.2 13.3 5.9 2.6 3.4 3.6 7.4 3.6 14.6v28.7h7.4v-28.7c0-9.2-1.3-14.1-4.8-18.8-4.3-5.5-10.9-8.5-18.6-8.5-7.2 0-13 2.7-17.6 8.4v-7.1h-7.4z" stroke="#000" stroke-linecap="round" stroke-linejoin="round" stroke-width="4.45"/></svg>
