<svg aria-label="Boilabin black graphic mark" role="img" viewBox="0 0 644.44 725" xmlns="http://www.w3.org/2000/svg"><title>Boilabin black graphic mark</title><g transform="translate(-235 -165)"><path d="m250 165h360c155 0 230 85 230 177 0 93-75 158-195 155-105-3-145-72-230-72-65 0-110 40-155 85-12 12-25 7-25-10v-310c0-14 4-25 15-25z"/><path d="m255 548c11-4 21 4 37 21 56 59 96 114 163 114 79 0 135-69 213-118 70-44 159-19 197 80 45 116-17 213-161 240-13 3-26 5-41 5h-406c-12 0-22-9-22-22v-284c0-17 8-31 20-36z"/></g></svg>
